Coordinates
version=1
nRows=22
nColumns=24
inDegrees=yes

Units are S.I. units (second, meters, Newtons, ...)
Angles are in degrees.

endheader
time	pelvis_tilt	pelvis_list	pelvis_rotation	pelvis_tx	pelvis_ty	pelvis_tz	hip_flexion_r	hip_adduction_r	hip_rotation_r	knee_angle_r	ankle_angle_r	subtalar_angle_r	mtp_angle_r	hip_flexion_l	hip_adduction_l	hip_rotation_l	knee_angle_l	ankle_angle_l	subtalar_angle_l	mtp_angle_l	lumbar_extension	lumbar_bending	lumbar_rotation
      1.27516667	     -0.06800999	      4.65236871	     -3.87527065	      0.23111595	      0.90917120	      0.30707433	     14.41415460	     -9.05770663	     -9.79377950	    -71.58172389	     -2.43831682	      4.33950726	     12.87821700	     11.67135986	      8.38252301	     -4.62798395	    -17.64694240	      7.79871848	     -8.79200050	      1.58548612	     -7.04955168	     -8.78499036	      3.14183969
      1.27933333	     -0.06830439	      4.47872266	     -3.74172086	      0.23626903	      0.91033424	      0.30680614	     15.02601840	     -8.82415707	     -9.94388929	    -71.27223007	     -1.73473131	      4.30434480	     12.79371579	     11.01517553	      8.26859643	     -4.45838074	    -17.10010377	      7.84008415	     -8.68336962	      1.60962374	     -7.10307776	     -8.57577460	      2.92594252
      1.28350000	     -0.07990755	      4.30179419	     -3.59632671	      0.24140160	      0.91144437	      0.30651398	     15.63524577	     -8.58623016	    -10.10524881	    -70.89980311	     -1.04845731	      4.22614821	     12.75018193	     10.38103315	      8.14661176	     -4.29883440	    -16.56642144	      7.85649080	     -8.56150555	      1.62445486	     -7.14726283	     -8.34215487	      2.76015321
      1.28766667	     -0.05142978	      4.11376399	     -3.43648559	      0.24654953	      0.91260995	      0.30619534	     16.16786271	     -8.34200577	    -10.28459861	    -70.43781879	     -0.40617269	      4.22875761	     12.69355632	      9.68474158	      8.01959808	     -4.09322996	    -15.99450901	      7.87980142	     -8.46053391	      1.64261663	     -7.24321429	     -8.10507316	      2.50706564
      1.29183333	     -0.04349154	      3.92307391	     -3.26710988	      0.25172292	      0.91372255	      0.30589018	     16.69820502	     -8.09025387	    -10.47783772	    -69.90077414	      0.20855561	      4.17685203	     12.66070060	      9.01980451	      7.87794131	     -3.92963942	    -15.44035729	      7.88388660	     -8.34864337	      1.65473070	     -7.25952380	     -7.88585164	      2.32615505
      1.29600000	      0.03930768	      3.75233058	     -3.08872559	      0.25688013	      0.91491049	      0.30551147	     17.13154997	     -7.88099269	    -10.67923113	    -69.30603090	      0.76011102	      4.21488796	     12.50489702	      8.22900370	      7.78306088	     -3.63033971	    -14.78093924	      7.85106364	     -8.36314376	      1.69368969	     -7.43121667	     -7.66188301	      1.86035833
      1.30016667	      0.09988743	      3.54205059	     -2.89744819	      0.26203175	      0.91604254	      0.30514918	     17.55795326	     -7.61704916	    -10.89616620	    -68.62472921	      1.29082517	      4.22457149	     12.41104466	      7.49534117	      7.62489758	     -3.40472435	    -14.19774418	      7.87922883	     -8.27567221	      1.71998720	     -7.54767676	     -7.39093903	      1.64939489
      1.30433333	      0.16854723	      3.33835853	     -2.69876085	      0.26716145	      0.91714273	      0.30478257	     17.96083730	     -7.35928899	    -11.11356993	    -67.88645979	      1.80460558	      4.22553483	     12.32373373	      6.75420329	      7.46936273	     -3.17180101	    -13.60707367	      7.87115045	     -8.19431772	      1.74339845	     -7.68161519	     -7.12822927	      1.39716560
      1.30850000	      0.24575500	      3.13338376	     -2.48832892	      0.27228427	      0.91821376	      0.30439523	     18.33328339	     -7.10320046	    -11.33954498	    -67.08350398	      2.28813394	      4.22725620	     12.24029557	      6.00588502	      7.30902896	     -2.93285073	    -13.01448420	      7.85735815	     -8.11775454	      1.76512546	     -7.82505926	     -6.86681382	      1.13696109
      1.31266667	      0.31929694	      2.91996700	     -2.26692433	      0.27739537	      0.91924490	      0.30401743	     18.68496963	     -6.83362581	    -11.57047942	    -66.20857031	      2.76717578	      4.22291986	     12.17952127	      5.27657461	      7.12897801	     -2.70796238	    -12.44989710	      7.82163017	     -8.02456625	      1.78092535	     -7.95828815	     -6.60833205	      0.91749367
      1.31683333	      0.43778731	      2.73645216	     -2.05661895	      0.28251616	      0.92027121	      0.30361504	     18.98256911	     -6.61000329	    -11.79656412	    -65.29711437	      3.16798136	      4.22998785	     12.07979036	      4.46391230	      6.98812530	     -2.44148646	    -11.80347826	      7.81371021	     -7.98358332	      1.80502174	     -8.14839150	     -6.35082117	      0.59323189
      1.32100000	      0.51466666	      2.52270604	     -1.81917066	      0.28759647	      0.92120462	      0.30320739	     19.29547906	     -6.34376400	    -12.03729421	    -64.30715832	      3.60305568	      4.22901608	     12.02035879	      3.74343697	      6.79657312	     -2.22089872	    -11.24926901	      7.76481663	     -7.88798538	      1.81989076	     -8.28430117	     -6.06856222	      0.39182964
      1.32516667	      0.63299271	      2.32735836	     -1.58936110	      0.29268925	      0.92213385	      0.30279935	     19.55017996	     -6.10400210	    -12.27403589	    -63.26971264	      3.97779782	      4.22382074	     11.95578094	      2.95796482	      6.62414340	     -1.97928694	    -10.65028315	      7.74340250	     -7.80275524	      1.83596228	     -8.47252946	     -5.79862334	      0.13820613
      1.32933333	      0.77861072	      2.15803936	     -1.37068371	      0.29777916	      0.92304013	      0.30241043	     19.76538366	     -5.88868555	    -12.48631723	    -62.18416822	      4.28297846	      4.21965029	     11.85236382	      2.12618242	      6.47868466	     -1.71510742	    -10.00984011	      7.73767105	     -7.78380716	      1.85975469	     -8.67864174	     -5.59377778	     -0.19228544
      1.33350000	      0.90126989	      1.97834377	     -1.13587311	      0.30284065	      0.92385585	      0.30199937	     19.98570553	     -5.66382201	    -12.71329420	    -61.04425405	      4.60462461	      4.20366543	     11.74983368	      1.34110431	      6.31134636	     -1.46505587	     -9.40647796	      7.70186000	     -7.73276205	      1.88283835	     -8.87055085	     -5.33831879	     -0.45682370
      1.33766667	      1.02673027	      1.80913616	     -0.90247790	      0.30790094	      0.92460916	      0.30160409	     20.18810484	     -5.44627183	    -12.92974465	    -59.85526124	      4.89713781	      4.17584542	     11.64348661	      0.55907664	      6.14693671	     -1.22690628	     -8.81290505	      7.67131268	     -7.67275272	      1.90669982	     -9.05749493	     -5.10600406	     -0.71794471
      1.34183333	      1.15464503	      1.64795555	     -0.66922944	      0.31294168	      0.92530125	      0.30121434	     20.37440902	     -5.23466208	    -13.13748873	    -58.61829368	      5.15848608	      4.13794054	     11.54080132	     -0.21741160	      5.98353209	     -1.00230889	     -8.22997683	      7.64772956	     -7.60231784	      1.92989534	     -9.24840824	     -4.88188845	     -0.96584951
      1.34600000	      1.28415918	      1.49657392	     -0.43797052	      0.31797443	      0.92592885	      0.30083367	     20.54419932	     -5.03119277	    -13.33658185	    -57.33423937	      5.39165790	      4.08401738	     11.43924287	     -0.99142603	      5.82374680	     -0.78114535	     -7.65175564	      7.62733542	     -7.52858263	      1.95313692	     -9.43907438	     -4.66657609	     -1.21321796
      1.35016667	      1.41117373	      1.35846706	     -0.21030358	      0.32300016	      0.92648132	      0.30046894	     20.70489178	     -4.83728212	    -13.52234089	    -56.00796026	      5.59472511	      4.01528213	     11.33445644	     -1.76021051	      5.67117252	     -0.56552284	     -7.07599561	      7.60769652	     -7.45238255	      1.97694693	     -9.62288256	     -4.46329422	     -1.46259146
      1.35433333	      1.53509695	      1.22887553	      0.01560620	      0.32802548	      0.92696405	      0.30010464	     20.85239156	     -4.65057217	    -13.69977763	    -54.63683129	      5.77250794	      3.93367626	     11.23240579	     -2.51871807	      5.52204003	     -0.36079339	     -6.51122526	      7.58937917	     -7.36996702	      1.99984986	     -9.80265330	     -4.27197027	     -1.70133480
      1.35850000	      1.64045827	      1.10265498	      0.24775909	      0.33303727	      0.92735696	      0.29974881	     21.00183276	     -4.46288094	    -13.87217296	    -53.21527299	      5.93964070	      3.84171857	     11.15329914	     -3.23531002	      5.36685035	     -0.18207490	     -5.98888830	      7.55763901	     -7.26556444	      2.01717688	     -9.95432537	     -4.07901671	     -1.90639414
      1.36266667	      1.75848607	      0.99726567	      0.46147859	      0.33805648	      0.92768963	      0.29942564	     21.12959084	     -4.29110470	    -14.01986486	    -51.76401208	      6.05950612	      3.71699414	     11.07022629	     -3.98296997	      5.23015357	      0.00005851	     -5.42871885	      7.54880590	     -7.16464514	      2.03570467	    -10.12418138	     -3.91507687	     -2.13724588
